<svg xmlns="http://www.w3.org/2000/svg" width="15.64" height="15.64" viewBox="0 0 15.64 15.64">
  <path id="Icon_awesome-info-circle" data-name="Icon awesome-info-circle" d="M8.382.563a7.82,7.82,0,1,0,7.82,7.82A7.821,7.821,0,0,0,8.382.563Zm0,3.468A1.324,1.324,0,1,1,7.058,5.355,1.324,1.324,0,0,1,8.382,4.031Zm1.766,8.009a.378.378,0,0,1-.378.378H6.995a.378.378,0,0,1-.378-.378v-.757a.378.378,0,0,1,.378-.378h.378V8.887H6.995a.378.378,0,0,1-.378-.378V7.752a.378.378,0,0,1,.378-.378H9.013a.378.378,0,0,1,.378.378V10.9H9.77a.378.378,0,0,1,.378.378Z" transform="translate(-0.563 -0.563)" fill="#736b82"/>
</svg>
