<svg xmlns="http://www.w3.org/2000/svg" width="32" height="32" viewBox="0 0 32 32">
  <g id="Group_1567" data-name="Group 1567" transform="translate(-663.731 -179.731)">
    <g id="Ellipse_86" data-name="Ellipse 86" transform="translate(663.731 179.731)" fill="none" stroke="#fff" stroke-width="1.5">
      <circle cx="16" cy="16" r="16" stroke="none"/>
      <circle cx="16" cy="16" r="15.25" fill="none"/>
    </g>
    <g id="Group_1566" data-name="Group 1566" transform="translate(672.24 188.24)">
      <path id="Path_2003" data-name="Path 2003" d="M602.015,337.891h.531q3.176,0,6.353,0a.981.981,0,0,0,1.08-.714A.949.949,0,0,0,608.967,336c-.941-.012-1.882,0-2.823,0q-1.831,0-3.661,0c-.14,0-.28-.014-.52-.027l1.828-1.827c.6-.6.688-1.116.256-1.561s-.971-.375-1.593.245q-1.7,1.7-3.4,3.4a.931.931,0,0,0-.008,1.436q1.819,1.831,3.651,3.648a.96.96,0,0,0,1.2.215.947.947,0,0,0,.443-1.022,1.158,1.158,0,0,0-.374-.584q-.936-.935-1.869-1.874A.96.96,0,0,1,602.015,337.891Z" transform="translate(-594.948 -329.418)" fill="#fff"/>
      <path id="Path_2004" data-name="Path 2004" d="M748.01,307.312c0,2.133,0,4.266,0,6.4a1,1,0,0,0,.485.968.938.938,0,0,0,1.381-.684,1.993,1.993,0,0,0,.012-.308q0-6.421,0-12.841c0-.612-.273-1-.754-1.087a.926.926,0,0,0-1.118.978c-.01,1.53,0,3.059,0,4.589Q748.009,306.319,748.01,307.312Z" transform="translate(-748.006 -299.74)" fill="#fff"/>
    </g>
  </g>
</svg>
