<svg xmlns="http://www.w3.org/2000/svg" width="21" height="21" viewBox="0 0 21 21">
  <g id="Group_10104" data-name="Group 10104" transform="translate(-300 -233)">
    <g id="Ellipse_27" data-name="Ellipse 27" transform="translate(300 233)" fill="#736b82" stroke="#fff" stroke-width="1">
      <circle cx="10.5" cy="10.5" r="10.5" stroke="none"/>
      <circle cx="10.5" cy="10.5" r="10" fill="none"/>
    </g>
    <g id="Icon_ionic-ios-camera" data-name="Icon ionic-ios-camera" transform="translate(300.786 231.125)">
      <path id="Path_19482" data-name="Path 19482" d="M17.08,16.854a1.561,1.561,0,1,1-1.561-1.561A1.561,1.561,0,0,1,17.08,16.854Z" transform="translate(-5.805 -4.553)" fill="#fff"/>
      <path id="Path_19483" data-name="Path 19483" d="M14.1,9.178h-1.48a.441.441,0,0,1-.326-.147c-.771-.864-1.062-1.157-1.377-1.157H8.595c-.318,0-.63.293-1.4,1.159a.432.432,0,0,1-.323.144H6.757V8.961a.218.218,0,0,0-.217-.217H5.833a.218.218,0,0,0-.217.217v.217h-.2a.881.881,0,0,0-.912.834v4.779a.94.94,0,0,0,.91.9H14.1a.87.87,0,0,0,.828-.9V10.012A.809.809,0,0,0,14.1,9.178ZM9.822,14.62a2.322,2.322,0,1,1,2.21-2.21A2.324,2.324,0,0,1,9.822,14.62Zm2.5-3.867a.353.353,0,1,1,.353-.353A.352.352,0,0,1,12.32,10.753Z" fill="#fff"/>
    </g>
  </g>
</svg>
