<svg xmlns="http://www.w3.org/2000/svg" width="8.427" height="11.116" viewBox="0 0 8.427 11.116">
  <g id="cat1" transform="translate(0 0)">
    <path id="cat1-2" data-name="cat1" d="M118.432,73.45l-2.519-4.788a1.668,1.668,0,0,1,.134-1.7,2.714,2.714,0,0,0,.351-1.713c0-.089,0-.18,0-.27l.283-1.3a.231.231,0,0,0-.226-.28h-1.083a.231.231,0,0,0-.226.185l-.2,1.006-.694.666-.7-.671-.2-1a.231.231,0,0,0-.226-.186h-1.083a.231.231,0,0,0-.226.28l.283,1.3c0,.09,0,.181,0,.27a2.714,2.714,0,0,0,.351,1.713,1.668,1.668,0,0,1,.134,1.7l-2.519,4.788a.231.231,0,0,0,.128.325l.272.1a11.452,11.452,0,0,0,7.573,0l.272-.1a.231.231,0,0,0,.128-.325Zm-5.445-4.576,0-.005a2.13,2.13,0,0,0-.169-2.168,2.3,2.3,0,0,1-.266-1.439c0-.1,0-.2,0-.3a.231.231,0,0,0-.005-.049l-.228-1.049h.607l.177.886a.231.231,0,0,0,.066.121l.909.875a.231.231,0,0,0,.32,0l.906-.87a.231.231,0,0,0,.066-.121l.18-.891h.607l-.228,1.049a.232.232,0,0,0-.005.049c0,.1,0,.2,0,.3a2.3,2.3,0,0,1-.266,1.439,2.13,2.13,0,0,0-.169,2.168l0,.005,1.97,3.745a11.927,11.927,0,0,1-6.455,0Z" transform="translate(-110.032 -63.399)" fill="#736b82"/>
    <circle id="Ellipse_3" data-name="Ellipse 3" cx="0.303" cy="0.303" r="0.303" transform="translate(3.911 2.901)" fill="#736b82"/>
    <circle id="Ellipse_4" data-name="Ellipse 4" cx="0.303" cy="0.303" r="0.303" transform="translate(3.911 3.773)" fill="#736b82"/>
  </g>
</svg>
