<svg xmlns="http://www.w3.org/2000/svg" width="11.288" height="11.813" viewBox="0 0 11.288 11.813">
  <g id="cat11" transform="translate(0 0)">
    <path id="Path_19101" data-name="Path 19101" d="M12.35,4.347c0-.13-.011-.257-.02-.384H11.037a4.348,4.348,0,0,0-8.663,0H1.081c-.009.127-.019.255-.019.384A5.644,5.644,0,0,0,6.076,9.954v.828H4.9v1.027H8.512V10.782H7.338V9.954A5.644,5.644,0,0,0,12.35,4.347ZM6.706.867a3.481,3.481,0,1,1-3.481,3.48A3.48,3.48,0,0,1,6.706.867ZM1.582,4.483h.78a4.346,4.346,0,0,0,8.688,0h.78a5.126,5.126,0,0,1-10.248,0Z" transform="translate(-1.062 0.004)" fill="#736b82"/>
  </g>
</svg>
