<svg xmlns="http://www.w3.org/2000/svg" width="12.77" height="6.89" viewBox="0 0 12.77 6.89">
  <g id="cat12" transform="translate(-7.84 -199.16)">
    <path id="Path_19102" data-name="Path 19102" d="M9.814,205.025H8.159a.319.319,0,0,1-.319-.319v-.129a2.908,2.908,0,0,1,2.9-2.9h.183a2.845,2.845,0,0,1,2.818-2.517h1.872a2.845,2.845,0,0,1,2.818,2.517h.505a1.674,1.674,0,1,1,0,3.349h-.3a1.344,1.344,0,0,1-2.611,0h-3.6a1.344,1.344,0,0,1-2.611,0Zm3.755-.639v-2.072H10.74a2.271,2.271,0,0,0-2.254,2.072H9.814a1.344,1.344,0,0,1,2.611,0Zm.639-2.072v2.072h1.817a1.344,1.344,0,0,1,2.611,0h.3a1.036,1.036,0,1,0,0-2.072ZM15,199.8v1.878h2.79a2.206,2.206,0,0,0-2.174-1.878Zm-.639,1.878V199.8h-.616a2.206,2.206,0,0,0-2.174,1.878ZM11.12,204a.7.7,0,1,0,.705.7A.7.7,0,0,0,11.12,204Zm6.211,0a.7.7,0,1,0,.7.7A.7.7,0,0,0,17.331,204Z" fill="#736b82"/>
  </g>
</svg>
