<svg xmlns="http://www.w3.org/2000/svg" width="10.539" height="10.352" viewBox="0 0 10.539 10.352">
  <g id="cat13" transform="translate(-8.762 -7.757)">
    <g id="Group_17" data-name="Group 17" transform="translate(9 7.9)">
      <rect id="Rectangle_22" data-name="Rectangle 22" width="0.407" height="0.407" transform="translate(4.828 4.724)" fill="#736b82" stroke="#736b82" stroke-width="0.2"/>
      <path id="Path_19105" data-name="Path 19105" d="M19.062,13.031,14.031,7.9,12.259,9.711V8.923H10.717v2.357L9,13.031h1.016v4.976h3.292V15.84a.723.723,0,0,1,1.446,0V17.6h-.723v.407h4.015V13.031ZM17.639,17.6H15.162V15.838a1.13,1.13,0,1,0-2.261,0V17.6H10.424V13.031h3v-.407H9.97l1.155-1.177V9.33h.727v.794l-.407.416.291.285,2.3-2.345,4.062,4.143H14.642v.407h3Z" transform="translate(-9 -7.9)" fill="#736b82" stroke="#736b82" stroke-width="0.2"/>
      <path id="Path_19106" data-name="Path 19106" d="M334.1,300.9v1.652h1.607V300.9Zm1.2,1.245h-.788v-.837h.788Z" transform="translate(-327.478 -294.932)" fill="#736b82" stroke="#736b82" stroke-width="0.2"/>
      <path id="Path_19107" data-name="Path 19107" d="M99,300.9v1.652h1.607V300.9Zm1.2,1.245h-.788v-.837h.788Z" transform="translate(-97.167 -294.932)" fill="#736b82" stroke="#736b82" stroke-width="0.2"/>
    </g>
  </g>
</svg>
