<svg xmlns="http://www.w3.org/2000/svg" width="10.463" height="9.17" viewBox="0 0 10.463 9.17">
  <path id="cat2" d="M11.631,15.853a1.9,1.9,0,0,1-2.055-1.874l-2.606.9v2.083l1.056-.371c.457-.152.552.048.552.409v4.879h6.106V17c0-.352.1-.561.552-.409l1.056.361V14.883l-2.606-.894a1.9,1.9,0,0,1-2.055,1.864m0-1.988H10.148V13.9a1.358,1.358,0,0,0,1.484,1.389A1.348,1.348,0,0,0,13.115,13.9v-.038Zm-1.56-.571h3.12a.876.876,0,0,1,.38.048l3.091,1.065a.289.289,0,0,1,.2.276v2.549c0,.323-.162.476-.533.352l-1.075-.371V21.94c0,.419-.086.523-.5.523H8.512c-.419,0-.5-.1-.5-.523V17.2l-1.075.371c-.371.133-.533-.029-.533-.352v-2.54a.289.289,0,0,1,.2-.276l3.091-1.065A.876.876,0,0,1,10.071,13.294Z" transform="translate(-6.4 -13.294)" fill="#736b82"/>
</svg>
