<svg xmlns="http://www.w3.org/2000/svg" width="6.128" height="11.369" viewBox="0 0 6.128 11.369">
  <g id="cat3" transform="translate(0 0)">
    <path id="Path_19084" data-name="Path 19084" d="M43.323,9.645h-5.4V.888h5.4Zm-3.122.889a.432.432,0,1,1,.432.436.434.434,0,0,1-.432-.436m3.484.4h0V.436h0v0h0A.436.436,0,0,0,43.251,0H37.993a.436.436,0,0,0-.435.434h0v10.5h0s0,.009,0,.014a.433.433,0,0,0,.441.425h5.258a.428.428,0,0,0,.43-.425s0-.009,0-.014" transform="translate(-37.558 0)" fill="#736b82"/>
  </g>
</svg>
