<svg xmlns="http://www.w3.org/2000/svg" width="10.125" height="9.45" viewBox="0 0 10.125 9.45">
  <g id="cat4" transform="translate(0 0)">
    <path id="Path_19085" data-name="Path 19085" d="M10.112,9.425h-8.1A1.013,1.013,0,0,1,1,8.412v-5.4A1.012,1.012,0,0,1,2.013,2h8.1a1.013,1.013,0,0,1,1.013,1.013v5.4A1.012,1.012,0,0,1,10.112,9.425Zm-8.1-6.75a.337.337,0,0,0-.337.338v5.4a.337.337,0,0,0,.337.337h8.1a.338.338,0,0,0,.338-.337v-5.4a.338.338,0,0,0-.338-.338Z" transform="translate(-1 -2)" fill="#736b82"/>
    <path id="Path_19086" data-name="Path 19086" d="M13.7,24.7H10.329a.337.337,0,0,1-.338-.391l.338-2.025A.338.338,0,0,1,10.666,22h2.7a.338.338,0,0,1,.338.284l.337,2.025a.337.337,0,0,1-.337.391Zm-2.977-.675h2.578l-.226-1.35H10.953Z" transform="translate(-6.954 -15.25)" fill="#736b82"/>
    <path id="Path_19087" data-name="Path 19087" d="M12.738,28.675h-5.4a.337.337,0,1,1,0-.675h5.4a.337.337,0,1,1,0,.675Z" transform="translate(-4.975 -19.225)" fill="#736b82"/>
    <path id="Path_19088" data-name="Path 19088" d="M10.787,17.675H1.337a.338.338,0,0,1,0-.675h9.45a.338.338,0,1,1,0,.675Z" transform="translate(-1 -11.938)" fill="#736b82"/>
  </g>
</svg>
