<svg xmlns="http://www.w3.org/2000/svg" width="10.125" height="8.1" viewBox="0 0 10.125 8.1">
  <g id="cat5" transform="translate(0 0)">
    <path id="rect823" d="M3.3,1.058a.338.338,0,0,0-.3.187L2.419,2.408H.6a.338.338,0,0,0-.338.338V8.821A.338.338,0,0,0,.6,9.159h9.45a.338.338,0,0,0,.338-.338V2.746a.338.338,0,0,0-.338-.338H8.236L7.654,1.245a.338.338,0,0,0-.3-.187Zm.208.675H7.144l.338.675H3.173ZM.94,3.083H9.715v5.4H.94Z" transform="translate(-0.265 -1.058)" fill="#736b82"/>
    <path id="path845" d="M4.67,291.709A2.024,2.024,0,1,0,6.7,293.732,2.027,2.027,0,0,0,4.67,291.709Zm0,.675a1.349,1.349,0,1,1-1.348,1.348A1.343,1.343,0,0,1,4.67,292.384Z" transform="translate(0.392 -289.008)" fill="#736b82"/>
    <path id="path847" d="M2,292.046a.338.338,0,1,1-.1-.239.338.338,0,0,1,.1.239Z" transform="translate(0.027 -289.008)" fill="#736b82"/>
  </g>
</svg>
