<svg xmlns="http://www.w3.org/2000/svg" width="9.984" height="9.984" viewBox="0 0 9.984 9.984">
  <path id="cat7" d="M16.558,12.279a1.411,1.411,0,0,0-.713.2V8.713A.713.713,0,0,0,15.132,8H10.853a.713.713,0,0,0-.713.713v3.764a1.411,1.411,0,0,0-.713-.2,1.422,1.422,0,0,0-.713,2.655v1.981a1.069,1.069,0,0,0,1.67.885.7.7,0,0,0,.469.185h4.279A.7.7,0,0,0,15.6,17.8a1.069,1.069,0,0,0,1.67-.885V14.934a1.422,1.422,0,0,0-.713-2.655ZM10.14,16.915a.357.357,0,1,1-.713,0V15.132a1.411,1.411,0,0,0,.713-.2Zm-.713-2.5a.713.713,0,1,1,.713-.713A.714.714,0,0,1,9.426,14.419Zm5.705,2.853H10.853V15.646a1.406,1.406,0,0,0,.713.2h2.853a1.406,1.406,0,0,0,.713-.2Zm-.713-2.14H11.566a.713.713,0,1,1,0-1.426h2.853a.713.713,0,0,1,0,1.426Zm.713-1.941a1.406,1.406,0,0,0-.713-.2H11.566a1.406,1.406,0,0,0-.713.2V8.713h4.279Zm1.426,3.724a.357.357,0,1,1-.713,0V14.934a1.411,1.411,0,0,0,.713.2Zm0-2.5a.713.713,0,1,1,.713-.713A.714.714,0,0,1,16.558,14.419Z" transform="translate(-8 -8)" fill="#736b82"/>
</svg>
