<svg xmlns="http://www.w3.org/2000/svg" width="8.391" height="10.911" viewBox="0 0 8.391 10.911">
  <g id="cat8" transform="translate(0 0)">
    <path id="Path_19093" data-name="Path 19093" d="M18.85,13.613l-.606-5.456a1.17,1.17,0,0,0-1.163-1.039h-.666V5.754a1.753,1.753,0,1,0-3.507,0V7.117h-.666a1.17,1.17,0,0,0-1.163,1.04l-.606,5.456a1.17,1.17,0,0,0,1.163,1.3h6.052a1.17,1.17,0,0,0,1.163-1.3ZM13.688,5.754a.974.974,0,0,1,1.948,0V7.117H13.688ZM17.978,14a.386.386,0,0,1-.291.13H11.636a.391.391,0,0,1-.388-.433l.606-5.454a.391.391,0,0,1,.388-.348h4.84a.391.391,0,0,1,.388.347l.606,5.455A.385.385,0,0,1,17.978,14Z" transform="translate(-10.467 -4)" fill="#736b82"/>
    <path id="Path_19094" data-name="Path 19094" d="M23.4,27h0a.391.391,0,1,0,.392.391A.391.391,0,0,0,23.4,27Z" transform="translate(-20.566 -22.519)" fill="#736b82"/>
    <path id="Path_19095" data-name="Path 19095" d="M37.4,27h0a.391.391,0,1,0,.392.391A.391.391,0,0,0,37.4,27Z" transform="translate(-31.838 -22.519)" fill="#736b82"/>
  </g>
</svg>
