<svg xmlns="http://www.w3.org/2000/svg" width="10.633" height="9.87" viewBox="0 0 10.633 9.87">
  <g id="cat9" transform="translate(-183.6 -388.6)">
    <g id="_6588571_bear_kids_teddy_toy_icon" data-name="6588571_bear_kids_teddy_toy_icon" transform="translate(184 389)">
      <circle id="Ellipse_12" data-name="Ellipse 12" cx="4" cy="4" r="4" transform="translate(0.917 1.07)" fill="none" stroke="#736b82" stroke-linecap="round" stroke-linejoin="round" stroke-miterlimit="10" stroke-width="0.8"/>
      <path id="Path_19096" data-name="Path 19096" d="M4.166,9.669A1.888,1.888,0,0,1,3,7.891,1.815,1.815,0,0,1,4.767,6,1.739,1.739,0,0,1,6.323,7.021" transform="translate(-3 -6)" fill="none" stroke="#736b82" stroke-linecap="round" stroke-linejoin="round" stroke-miterlimit="10" stroke-width="0.8"/>
      <path id="Path_19097" data-name="Path 19097" d="M19.6,7.021A1.748,1.748,0,0,1,21.163,6a1.818,1.818,0,0,1,1.776,1.891,1.888,1.888,0,0,1-1.172,1.778" transform="translate(-13.106 -6)" fill="none" stroke="#736b82" stroke-linecap="round" stroke-linejoin="round" stroke-miterlimit="10" stroke-width="0.8"/>
      <path id="Path_19098" data-name="Path 19098" d="M0,2V0H0" transform="translate(4.917 5.07)" fill="none" stroke="#736b82" stroke-linecap="round" stroke-width="0.8"/>
      <line id="Line_2" data-name="Line 2" y2="1" transform="translate(3.917 3.07)" fill="none" stroke="#736b82" stroke-linecap="round" stroke-linejoin="round" stroke-miterlimit="10" stroke-width="0.8"/>
      <line id="Line_3" data-name="Line 3" y2="1" transform="translate(5.917 3.07)" fill="none" stroke="#736b82" stroke-linecap="round" stroke-linejoin="round" stroke-miterlimit="10" stroke-width="0.8"/>
    </g>
  </g>
</svg>
