<svg xmlns="http://www.w3.org/2000/svg" width="21.522" height="21.522" viewBox="0 0 21.522 21.522">
  <path id="Icon_ionic-ios-checkmark-circle" data-name="Icon ionic-ios-checkmark-circle" d="M14.136,3.375a10.761,10.761,0,0,0,0,21.522,11.016,11.016,0,0,0,5.08-1.272A10.644,10.644,0,0,0,24.9,14.136,10.759,10.759,0,0,0,14.136,3.375Zm5.51,7.786-6.917,6.948h-.005a.934.934,0,0,1-.6.285.906.906,0,0,1-.605-.295l-2.9-2.9a.206.206,0,0,1,0-.295l.921-.921a.2.2,0,0,1,.29,0l2.3,2.3L18.44,9.925a.2.2,0,0,1,.145-.062h0a.188.188,0,0,1,.145.062l.905.936A.2.2,0,0,1,19.646,11.161Z" transform="translate(-3.375 -3.375)" fill="#039e22"/>
</svg>
