<svg xmlns="http://www.w3.org/2000/svg" width="16.219" height="12.164" viewBox="0 0 16.219 12.164">
  <path id="Icon_awesome-envelope" data-name="Icon awesome-envelope" d="M15.912,8.517a.191.191,0,0,1,.307.149v6.478A1.521,1.521,0,0,1,14.7,16.664H1.521A1.521,1.521,0,0,1,0,15.144V8.669A.189.189,0,0,1,.307,8.52c.71.551,1.65,1.251,4.882,3.6.668.488,1.8,1.514,2.921,1.508,1.131.01,2.281-1.039,2.924-1.508C14.264,9.771,15.2,9.068,15.912,8.517Zm-7.8,4.093c.735.013,1.793-.925,2.325-1.311,4.2-3.051,4.524-3.317,5.493-4.077a.758.758,0,0,0,.291-.6v-.6A1.521,1.521,0,0,0,14.7,4.5H1.521A1.521,1.521,0,0,0,0,6.021v.6a.763.763,0,0,0,.291.6c.969.757,1.289,1.026,5.493,4.077C6.317,11.685,7.375,12.622,8.109,12.609Z" transform="translate(0 -4.5)" fill="#736b82"/>
</svg>
