<svg xmlns="http://www.w3.org/2000/svg" width="14.821" height="14.821" viewBox="0 0 14.821 14.821">
  <path id="Icon_material-local-offer" data-name="Icon material-local-offer" d="M17.384,10.1,10.714,3.43A1.473,1.473,0,0,0,9.669,3H4.482A1.486,1.486,0,0,0,3,4.482V9.669a1.479,1.479,0,0,0,.437,1.052l6.669,6.669a1.473,1.473,0,0,0,1.045.43,1.449,1.449,0,0,0,1.045-.437L17.384,12.2a1.449,1.449,0,0,0,.437-1.045,1.5,1.5,0,0,0-.437-1.052ZM5.594,6.705A1.112,1.112,0,1,1,6.705,5.594,1.11,1.11,0,0,1,5.594,6.705Z" transform="translate(-3 -3)" fill="#736b82"/>
</svg>
