<svg xmlns="http://www.w3.org/2000/svg" width="15.636" height="15.636" viewBox="0 0 15.636 15.636">
  <path id="Icon_ionic-md-help-circle" data-name="Icon ionic-md-help-circle" d="M11.193,3.375a7.818,7.818,0,1,0,7.818,7.818A7.821,7.821,0,0,0,11.193,3.375Zm.789,12.516H10.4V14.313h1.579Zm-.008-2.368H10.411c0-2.518,2.345-2.338,2.345-3.9a1.57,1.57,0,0,0-1.564-1.567,1.586,1.586,0,0,0-1.564,1.56H8.066a3.127,3.127,0,0,1,6.254,0C14.32,11.572,11.975,11.794,11.975,13.523Z" transform="translate(-3.375 -3.375)" fill="#736b82"/>
</svg>
