<svg xmlns="http://www.w3.org/2000/svg" width="12.859" height="16.92" viewBox="0 0 12.859 16.92">
  <g id="Icon_ionic-ios-document" data-name="Icon ionic-ios-document" transform="translate(-7.313 -3.938)">
    <path id="Path_19486" data-name="Path 19486" d="M21.405,8.128h3.849a.209.209,0,0,0,.211-.211h0a1.252,1.252,0,0,0-.453-.969l-3.227-2.69a1.359,1.359,0,0,0-.871-.313h0a.312.312,0,0,0-.313.313V7.324A.8.8,0,0,0,21.405,8.128Z" transform="translate(-5.295 -0.003)" fill="#736b82"/>
    <path id="Path_19487" data-name="Path 19487" d="M14.207,7.321V3.938H8.666A1.358,1.358,0,0,0,7.313,5.291V19.5a1.358,1.358,0,0,0,1.354,1.354H18.818A1.358,1.358,0,0,0,20.171,19.5V9.225H16.111A1.906,1.906,0,0,1,14.207,7.321Z" transform="translate(0 0)" fill="#736b82"/>
  </g>
</svg>
