<svg xmlns="http://www.w3.org/2000/svg" width="141.243" height="32.603" viewBox="0 0 141.243 32.603">
  <g id="Group_10104" data-name="Group 10104" transform="translate(-600.119 -444.989)">
    <g id="Group_52" data-name="Group 52" transform="translate(600.119 444.989)">
      <path id="Path_19124" data-name="Path 19124" d="M615.657,444.989H600.119v32.6h15.154l-7.891-7.89a6.309,6.309,0,0,1-1.859-4.49v-8.947a3.529,3.529,0,0,1,3.526-3.526H618a6.3,6.3,0,0,1,4.488,1.859l9.269,9.269a16.412,16.412,0,0,0,.2-2.576h0A16.3,16.3,0,0,0,615.657,444.989Z" transform="translate(-600.119 -444.989)" fill="#e67e22"/>
      <path id="Path_19125" data-name="Path 19125" d="M662.343,517.973a3.526,3.526,0,1,0,3.526,3.526A3.529,3.529,0,0,0,662.343,517.973Z" transform="translate(-649.181 -505.992)" fill="#e67e22"/>
    </g>
    <g id="Group_53" data-name="Group 53" transform="translate(635.934 447.146)">
      <path id="Path_19126" data-name="Path 19126" d="M818.292,465.653v-5.122h21.826v5.122h-7.564v22.536h-6.737V465.653Z" transform="translate(-818.292 -460.137)" fill="#3f3f3f"/>
      <path id="Path_19127" data-name="Path 19127" d="M992.578,460.531h7.249l-7.722,27.657h-7.722l-4.846-17.532-4.806,17.532h-7.722l-7.84-27.657h7.21l4.806,19.9,4.925-19.9h7.643l4.728,19.581Z" transform="translate(-936.043 -460.137)" fill="#3f3f3f"/>
      <path id="Path_19128" data-name="Path 19128" d="M1226.528,488.188V460.531h6.737v27.657Z" transform="translate(-1159.513 -460.137)" fill="#3f3f3f"/>
      <path id="Path_19129" data-name="Path 19129" d="M1297.846,482.42a14.558,14.558,0,0,1,0-20.29,13.9,13.9,0,0,1,10.066-4,14.211,14.211,0,0,1,8.2,2.443,12.739,12.739,0,0,1,5,6.776h-8.037a5.292,5.292,0,0,0-5.042-3.034,7.042,7.042,0,0,0-5.457,2.167,9.425,9.425,0,0,0,0,11.583,6.893,6.893,0,0,0,5.338,2.167,6.122,6.122,0,0,0,3.92-1.2,5.793,5.793,0,0,0,2.029-3.211h-7.8V470.7h15.05v5.122a13.46,13.46,0,0,1-4.137,7.052,12.461,12.461,0,0,1-4,2.561,13.127,13.127,0,0,1-5.063.985A13.9,13.9,0,0,1,1297.846,482.42Z" transform="translate(-1215.682 -458.131)" fill="#3f3f3f"/>
    </g>
  </g>
</svg>
