<svg xmlns="http://www.w3.org/2000/svg" width="16.33" height="15.163" viewBox="0 0 16.33 15.163">
  <path id="Icon_ionic-ios-star" data-name="Icon ionic-ios-star" d="M17.96,8.624H12.6L10.969,3.761a.59.59,0,0,0-1.108,0L8.231,8.624h-5.4a.585.585,0,0,0-.583.583.429.429,0,0,0,.011.1.56.56,0,0,0,.244.412l4.407,3.106L5.221,17.74a.585.585,0,0,0,.2.656.564.564,0,0,0,.328.142.715.715,0,0,0,.365-.131l4.3-3.065,4.3,3.065a.683.683,0,0,0,.364.131A.524.524,0,0,0,15.4,18.4a.578.578,0,0,0,.2-.656l-1.691-4.917,4.37-3.135L18.39,9.6a.557.557,0,0,0-.43-.973Z" transform="translate(-2.25 -3.375)" fill="#736b82"/>
</svg>
