<svg xmlns="http://www.w3.org/2000/svg" width="16.39" height="16.39" viewBox="0 0 16.39 16.39">
  <g id="Icon_ionic-ios-chatbubbles" data-name="Icon ionic-ios-chatbubbles" transform="translate(-3.375 -3.375)">
    <path id="Path_19484" data-name="Path 19484" d="M20.576,14.115a.955.955,0,0,1,.13-.481,1.327,1.327,0,0,1,.083-.122,6.384,6.384,0,0,0,1.087-3.558,6.7,6.7,0,0,0-6.844-6.58,6.8,6.8,0,0,0-6.71,5.236,6.332,6.332,0,0,0-.146,1.347,6.683,6.683,0,0,0,6.737,6.662,8.114,8.114,0,0,0,1.86-.3c.445-.122.886-.284,1-.327a1.042,1.042,0,0,1,.366-.067,1.024,1.024,0,0,1,.4.079l2.234.792a.533.533,0,0,0,.154.039.314.314,0,0,0,.315-.315.506.506,0,0,0-.02-.106Z" transform="translate(-2.111)" fill="#736b82"/>
    <path id="Path_19485" data-name="Path 19485" d="M14.033,21.137c-.142.039-.323.083-.52.126a7.272,7.272,0,0,1-1.34.177,6.683,6.683,0,0,1-6.737-6.662,7.449,7.449,0,0,1,.059-.843c.024-.169.051-.339.091-.5s.087-.355.138-.528l-.315.28a5.863,5.863,0,0,0-2.033,4.409,5.8,5.8,0,0,0,.977,3.231c.091.138.142.244.126.315s-.469,2.443-.469,2.443a.316.316,0,0,0,.106.3.321.321,0,0,0,.2.071.283.283,0,0,0,.114-.024l2.21-.871a.616.616,0,0,1,.473.008,6.631,6.631,0,0,0,2.392.473,6.188,6.188,0,0,0,4.732-2.171s.126-.173.272-.378C14.363,21.042,14.2,21.093,14.033,21.137Z" transform="translate(0 -4.189)" fill="#736b82"/>
  </g>
</svg>
