<svg xmlns="http://www.w3.org/2000/svg" xmlns:xlink="http://www.w3.org/1999/xlink" width="14.886" height="14.887" viewBox="0 0 14.886 14.887">
  <defs>
    <clipPath id="clip-path">
      <rect id="Rectangle_674" data-name="Rectangle 674" width="14.886" height="14.887" fill="#736b82"/>
    </clipPath>
  </defs>
  <g id="Group_149" data-name="Group 149" clip-path="url(#clip-path)">
    <path id="Path_19488" data-name="Path 19488" d="M11.32,10.341c-.127.123-.247.233-.359.35a2.1,2.1,0,0,1-.929.569c-.374.114-.742.25-1.115.369a1.038,1.038,0,0,1-1.077-.245.991.991,0,0,1-.308-1.045,14.762,14.762,0,0,1,.5-1.483,1.919,1.919,0,0,1,.421-.6c.918-.931,1.848-1.851,2.777-2.772a.336.336,0,0,0,.109-.266c-.005-.518,0-1.037,0-1.555V3.49H8.382c-.384,0-.532-.15-.532-.539q0-1.475,0-2.95H1.163a1.553,1.553,0,0,0-.68.3,1.3,1.3,0,0,0-.461.8A.443.443,0,0,1,0,1.164v12.56a3.381,3.381,0,0,0,.262.62,1.281,1.281,0,0,0,1.142.544q4.258,0,8.516,0a1.753,1.753,0,0,0,.217-.011,1.289,1.289,0,0,0,1.194-1.292c.018-1.061,0-2.122,0-3.183a.325.325,0,0,0-.017-.06M1.772,4.657a.425.425,0,0,1,.365-.291.7.7,0,0,1,.1,0H8.213a.445.445,0,0,1,.481.335.432.432,0,0,1-.422.535c-.291.007-.581,0-.872,0H5.233q-1.5,0-3.009,0a.435.435,0,0,1-.453-.577m0,1.73a.445.445,0,0,1,.449-.28H4.361c.712,0,1.424,0,2.137,0a.436.436,0,1,1,.014.87c-.334,0-.669,0-1,0q-1.642,0-3.285,0a.437.437,0,0,1-.449-.592m0,1.744a.445.445,0,0,1,.449-.279H4.361c.712,0,1.424,0,2.137,0a.436.436,0,1,1,.014.87c-.334,0-.669,0-1,0q-1.642,0-3.285,0a.437.437,0,0,1-.449-.592m.439,2.336a.435.435,0,0,1-.435-.6.445.445,0,0,1,.454-.272c.775,0,1.55,0,2.326,0H6.507a.423.423,0,0,1,.41.249.414.414,0,0,1-.039.441.459.459,0,0,1-.405.183c-.707,0-1.415,0-2.122,0s-1.424,0-2.137,0m6,2.617H6.976c-.421,0-.843,0-1.264,0a.439.439,0,1,1,0-.872h2.5a.439.439,0,1,1,0,.872" transform="translate(0 -0.001)" fill="#736b82"/>
    <path id="Path_19489" data-name="Path 19489" d="M240.939,1.575c-.319-.318-.643-.631-.954-.957A1.79,1.79,0,0,0,238.966,0h-.233V2.609h2.625a1.334,1.334,0,0,0-.42-1.034" transform="translate(-230.04 -0.001)" fill="#736b82"/>
    <path id="Path_19490" data-name="Path 19490" d="M255.913,163.006l1.2,1.2,2.82-2.82-1.194-1.2-2.821,2.821" transform="translate(-246.594 -154.352)" fill="#736b82"/>
    <path id="Path_19491" data-name="Path 19491" d="M352.58,118.282a.881.881,0,0,0-1.13-.108c-.271.214-.506.473-.744.7l1.238,1.24c.016-.014.043-.035.066-.058.2-.207.418-.4.607-.624a.856.856,0,0,0-.037-1.151" transform="translate(-337.936 -113.719)" fill="#736b82"/>
    <path id="Path_19492" data-name="Path 19492" d="M230.067,260.01c.364-.116.725-.239,1.087-.359l-1.013-1.012c-.12.36-.252.734-.366,1.112-.056.188.1.321.292.259" transform="translate(-221.397 -249.22)" fill="#736b82"/>
  </g>
</svg>
