<svg id="search-w" xmlns="http://www.w3.org/2000/svg" width="19.7" height="19.7" viewBox="0 0 19.7 19.7">
  <g id="Group_7" data-name="Group 7" transform="translate(2.962 4.27)">
    <g id="Group_6" data-name="Group 6">
      <path id="Path_10" data-name="Path 10" d="M79.455,111.189a.727.727,0,0,0-1.029,0A4.974,4.974,0,0,0,77,115.221a.728.728,0,0,0,.723.656c.024,0,.049,0,.073,0a.728.728,0,0,0,.652-.8,3.524,3.524,0,0,1,1-2.858A.727.727,0,0,0,79.455,111.189Z" transform="translate(-76.978 -110.975)" fill="#fff"/>
    </g>
  </g>
  <g id="Group_9" data-name="Group 9">
    <g id="Group_8" data-name="Group 8">
      <path id="Path_11" data-name="Path 11" d="M8.322,0a8.322,8.322,0,1,0,8.322,8.322A8.331,8.331,0,0,0,8.322,0Zm0,15.188a6.866,6.866,0,1,1,6.866-6.866A6.874,6.874,0,0,1,8.322,15.188Z" fill="#fff"/>
    </g>
  </g>
  <g id="Group_11" data-name="Group 11" transform="translate(12.956 12.956)">
    <g id="Group_10" data-name="Group 10">
      <path id="Path_12" data-name="Path 12" d="M343.24,342.212l-5.289-5.289a.728.728,0,0,0-1.029,1.029l5.289,5.289a.728.728,0,1,0,1.029-1.029Z" transform="translate(-336.708 -336.709)" fill="#fff"/>
    </g>
  </g>
</svg>
