<svg xmlns="http://www.w3.org/2000/svg" xmlns:xlink="http://www.w3.org/1999/xlink" width="48" height="48" viewBox="0 0 48 48">
  <defs>
    <filter id="Rectangle_286" x="0" y="0" width="48" height="48" filterUnits="userSpaceOnUse">
      <feOffset dy="3" input="SourceAlpha"/>
      <feGaussianBlur stdDeviation="3" result="blur"/>
      <feFlood flood-color="#8a8a8a" flood-opacity="0.161"/>
      <feComposite operator="in" in2="blur"/>
      <feComposite in="SourceGraphic"/>
    </filter>
  </defs>
  <g id="Group_10105" data-name="Group 10105" transform="translate(-126 -839)">
    <g transform="matrix(1, 0, 0, 1, 126, 839)" filter="url(#Rectangle_286)">
      <rect id="Rectangle_286-2" data-name="Rectangle 286" width="30" height="30" rx="15" transform="translate(9 6)" fill="#e67e22"/>
    </g>
    <path id="Icon_ionic-ios-paper-plane" data-name="Icon ionic-ios-paper-plane" d="M16.862,3.409,3.519,10.628a.279.279,0,0,0,.02.5l2.276.858a.538.538,0,0,1,.3.28L7.884,15.9c.033.16.33.2.334.04l-.27-3.01a1.073,1.073,0,0,1,.244-.607L15.11,5.548a.167.167,0,0,1,.15-.043.158.158,0,0,1,.087.254l-5.964,7.3a1.333,1.333,0,0,0-.234.6l-.357,2.6c.03.227.207.314.35.11l1.285-1.509a.269.269,0,0,1,.377-.063l3.311,2.413a.267.267,0,0,0,.421-.164L17.253,3.709A.271.271,0,0,0,16.862,3.409Z" transform="translate(138.162 849.624)" fill="#fff"/>
  </g>
</svg>
