<svg xmlns="http://www.w3.org/2000/svg" width="15.378" height="15.382" viewBox="0 0 15.378 15.382">
  <path id="Icon_ionic-ios-settings" data-name="Icon ionic-ios-settings" d="M18.609,12.189a1.979,1.979,0,0,1,1.269-1.846,7.844,7.844,0,0,0-.949-2.287,2.005,2.005,0,0,1-.8.172,1.974,1.974,0,0,1-1.806-2.779A7.82,7.82,0,0,0,14.035,4.5a1.977,1.977,0,0,1-3.692,0,7.844,7.844,0,0,0-2.287.949A1.974,1.974,0,0,1,6.25,8.228a1.94,1.94,0,0,1-.8-.172A8.017,8.017,0,0,0,4.5,10.347a1.978,1.978,0,0,1,0,3.692,7.844,7.844,0,0,0,.949,2.287A1.975,1.975,0,0,1,8.06,18.933a7.89,7.89,0,0,0,2.287.949,1.974,1.974,0,0,1,3.684,0,7.844,7.844,0,0,0,2.287-.949,1.977,1.977,0,0,1,2.607-2.607,7.89,7.89,0,0,0,.949-2.287A1.988,1.988,0,0,1,18.609,12.189Zm-6.383,3.2a3.2,3.2,0,1,1,3.2-3.2A3.2,3.2,0,0,1,12.225,15.389Z" transform="translate(-4.5 -4.5)" fill="#736b82"/>
</svg>
