<svg xmlns="http://www.w3.org/2000/svg" width="14.667" height="16.195" viewBox="0 0 14.667 16.195">
  <path id="Icon_ionic-md-share" data-name="Icon ionic-md-share" d="M16.716,14.569a2.227,2.227,0,0,0-1.594.61L9.28,11.8a2.736,2.736,0,0,0,.082-.57,2.735,2.735,0,0,0-.082-.57l5.761-3.336a2.445,2.445,0,1,0-.776-1.791,2.72,2.72,0,0,0,.082.57L8.586,9.442A2.459,2.459,0,0,0,6.91,8.791,2.419,2.419,0,0,0,4.5,11.232a2.46,2.46,0,0,0,4.126,1.791l5.8,3.377a2.041,2.041,0,0,0-.082.529,2.37,2.37,0,1,0,2.37-2.36Z" transform="translate(-4.5 -3.094)" fill="#e67e22"/>
</svg>
