<svg xmlns="http://www.w3.org/2000/svg" width="15.201" height="14.115" viewBox="0 0 15.201 14.115">
  <path id="Icon_ionic-ios-star" data-name="Icon ionic-ios-star" d="M16.874,8.261H11.883L10.366,3.735a.55.55,0,0,0-1.031,0L7.818,8.261H2.793A.544.544,0,0,0,2.25,8.8a.4.4,0,0,0,.01.092.522.522,0,0,0,.227.383l4.1,2.891L5.015,16.747a.544.544,0,0,0,.187.611.525.525,0,0,0,.305.132.665.665,0,0,0,.339-.122l4-2.853,4,2.853a.636.636,0,0,0,.339.122.487.487,0,0,0,.3-.132.538.538,0,0,0,.187-.611L13.108,12.17l4.068-2.918.1-.085a.519.519,0,0,0-.4-.906Z" transform="translate(-2.25 -3.375)" fill="#f1bc0f"/>
</svg>
